<svg width="109" height="52" viewBox="0 0 109 52" fill="none" xmlns="http://www.w3.org/2000/svg">
<path fill-rule="evenodd" clip-rule="evenodd" d="M100.902 48.436L100.94 48.3972V49.7534C100.437 50.2184 100.165 50.3734 99.7004 50.3734C99.1579 50.3734 98.7704 50.1797 98.7704 49.5597C98.7704 48.6297 99.7779 48.3972 100.32 48.3972C100.398 48.3972 100.708 48.436 100.902 48.436ZM44.0959 48.436C44.1347 48.4747 44.1735 48.4747 44.2122 48.3972V49.7147C43.786 50.2184 43.321 50.3734 42.9335 50.3734C42.4298 50.3734 42.0423 50.2184 42.0423 49.5984C42.0423 48.6685 42.9722 48.3972 43.5535 48.3972C43.631 48.3972 43.9022 48.3972 44.0959 48.436ZM39.1361 48.7847C39.1361 50.0634 38.1674 50.2184 37.3149 50.2184C37.2374 50.2184 36.85 50.2184 36.6562 50.1797V47.4285C36.8887 47.4672 37.2762 47.4285 37.3924 47.4285C38.3612 47.4285 39.1361 47.6222 39.1361 48.7847ZM30.1076 46.9635V49.9084C29.8364 50.2184 29.3714 50.3346 29.1389 50.3346C27.8214 50.3346 27.4727 49.4047 27.4727 48.436C27.4727 47.5447 27.9377 46.4598 29.1001 46.4598C29.4102 46.4598 29.8364 46.5373 30.1076 46.9635ZM23.8303 46.4985C24.1403 46.5373 24.7603 47.196 24.7603 47.5447V47.7385H21.8929V47.6222C22.1254 46.8085 22.6679 46.4598 23.3654 46.4598C23.4428 46.4598 23.6753 46.4598 23.8303 46.4985ZM67.7714 48.3585C67.7714 49.1335 67.5389 50.3346 66.3377 50.3346C65.0977 50.3346 64.9815 49.0947 64.9815 48.3972C64.9815 47.6997 65.1752 46.421 66.3764 46.421C67.5776 46.421 67.7714 47.6222 67.7714 48.3585ZM91.4856 45.7235V51.0709H90.5556V46.4985H89.8194V45.7235H91.4856ZM15.6158 45.7235V51.0709H14.6471V46.4985H13.9108V45.7235H15.6158ZM79.6674 48.7459H77.6137L78.6987 45.6848L79.6674 48.7459ZM101.095 45.8786C101.599 46.0723 101.948 47.041 101.948 47.4672V49.9859C101.987 50.2184 102.064 50.4896 102.374 50.6834V51.1484H101.909C101.599 51.0709 101.134 50.7996 101.057 50.4897C100.785 50.9546 99.778 51.1871 99.3518 51.1871C98.3831 51.1871 97.8018 50.3734 97.8018 49.5597C97.8018 48.1259 99.3518 47.6222 100.282 47.6222C100.359 47.6222 100.708 47.6997 100.94 47.7385C100.979 47.6997 100.979 47.6222 100.979 47.5447C100.979 46.6923 100.32 46.4598 99.778 46.4598C99.3905 46.4598 98.8093 46.576 98.4993 46.9248C98.3443 46.6923 98.0731 46.266 98.0731 46.1498C98.0731 46.0723 98.4218 45.8786 98.5768 45.8398C98.7318 45.7623 98.9643 45.6848 99.2355 45.6461C99.3518 45.6073 99.6618 45.6073 99.7393 45.6073C100.165 45.6073 100.708 45.7235 101.095 45.8786ZM97.0268 46.1498C96.9106 46.3435 96.7556 46.576 96.6006 46.8085C96.0582 46.4985 95.7869 46.421 95.3219 46.421C93.9657 46.421 93.6557 47.5835 93.6557 48.436C93.6557 49.5597 94.1982 50.3734 95.3606 50.3734C95.7481 50.3734 96.3293 50.1409 96.6781 49.8697L97.0656 50.6447C96.7556 50.9159 95.6706 51.1871 95.1669 51.1871C94.1594 51.1871 93.0358 50.5671 92.687 49.1335C92.687 49.0559 92.6482 48.901 92.6482 48.8234V48.0872C92.8032 46.266 94.1207 45.6073 95.3606 45.6073C95.8644 45.6073 96.5619 45.8398 97.0268 46.1498ZM89.3933 45.6848L89.0446 46.6148C88.8509 46.5373 88.4634 46.421 88.3858 46.421C87.7659 46.421 87.1459 47.1185 87.1459 47.661V51.0709H86.1772V45.7235H87.1459C87.1459 45.9561 87.1459 46.2273 87.1847 46.4598C87.4947 45.801 88.1921 45.6073 88.6571 45.6073C88.7734 45.6073 89.1609 45.6461 89.3933 45.6848ZM73.0801 45.7623C72.9638 46.0723 72.8476 46.3435 72.7314 46.6148C72.5376 46.5373 72.1501 46.421 72.0726 46.421C71.4526 46.421 70.8327 47.1185 70.8327 47.661V51.0709H69.864V45.7235H70.8327C70.8327 45.9561 70.8327 46.2273 70.8714 46.4598C71.1814 45.801 71.8789 45.6073 72.3439 45.6073C72.5764 45.6073 73.0801 45.7623 73.0801 45.7623ZM68.779 48.3585C68.779 49.7147 68.1977 51.1871 66.3766 51.1871C64.5941 51.1871 63.9354 49.7147 63.9354 48.3585C63.9354 46.9248 64.7491 45.6073 66.3766 45.6073C68.2365 45.6073 68.779 47.041 68.779 48.3585ZM49.6372 45.6461C50.2959 45.6461 50.9159 46.6148 50.9159 47.196V51.0709H49.9859V47.5447C49.9472 46.731 49.4822 46.421 48.9009 46.421C48.7847 46.421 48.7072 46.3823 48.6684 46.421C48.436 46.4598 47.6222 46.8085 47.6222 47.1185V51.0709H46.6923V45.7235H47.351C47.4285 45.9173 47.5447 46.1498 47.6222 46.3435C48.0097 45.801 48.6297 45.6073 49.1722 45.6073C49.2497 45.6073 49.4822 45.6461 49.6372 45.6461ZM44.9873 46.6535C45.026 46.8472 45.1811 47.1573 45.1811 47.2735V49.7922C45.2585 50.0247 45.2198 50.4509 45.6073 50.6834V51.1484H45.1811C44.9098 51.1097 44.4061 50.8771 44.3285 50.4897C44.0961 50.9546 42.9724 51.1871 42.5849 51.1871C41.6549 51.1871 41.0349 50.3734 41.0349 49.5597C41.0349 48.126 42.5849 47.6223 43.5148 47.6223C43.5924 47.6223 43.9798 47.6997 44.2123 47.7385C44.2511 47.6997 44.2511 47.6997 44.2511 47.5835C44.2511 46.8085 43.7086 46.4598 43.0498 46.4598C42.5849 46.4598 42.1974 46.5373 41.7711 46.9248C41.5774 46.8085 41.3837 46.3435 41.3062 46.1498C41.6936 45.8398 42.4687 45.6073 43.0111 45.6073C43.5536 45.6073 44.7161 45.7623 44.9873 46.6535ZM25.7292 47.8935C25.7292 47.971 25.7292 48.281 25.6904 48.4747H21.8155V48.7847C21.893 49.8697 22.7068 50.3734 23.5205 50.3734C23.9467 50.3734 24.3342 50.2571 24.8379 49.9084C24.9929 50.1021 25.1092 50.3347 25.2642 50.5671C24.9929 50.9159 23.7917 51.1871 23.3267 51.1871C21.6218 51.1871 20.8081 49.7922 20.8081 48.436C20.8081 47.0022 21.6993 45.6073 23.3267 45.6073C24.7605 45.6073 25.7292 46.421 25.7292 47.8935ZM11.9346 45.7623C12.0509 45.801 12.3609 46.1111 12.4771 46.266C12.5159 46.266 12.8259 47.041 12.8259 47.196V51.0709H11.8959V47.5447C11.7409 46.6535 11.4309 46.4211 10.8109 46.4211C10.3847 46.4211 9.95844 46.5761 9.53222 47.1185V51.0709H8.60226V45.7235H9.26097C9.33844 45.9173 9.45468 46.1498 9.53222 46.3436C9.91968 45.8011 10.5397 45.6073 11.0821 45.6073C11.1597 45.6073 11.6634 45.6461 11.9346 45.7623ZM38.7487 45.5298C38.7487 46.5373 37.8963 46.6535 37.2375 46.6535H36.6563V44.5611H37.2763C37.8575 44.5611 38.7487 44.5611 38.7487 45.5298ZM18.4057 45.7235H19.8781V46.4598H18.4057V49.4822C18.5994 50.1797 18.8706 50.3734 19.3356 50.3734C19.4519 50.3734 19.8781 50.2572 20.1106 50.1797C20.1494 50.4509 20.2269 50.7609 20.2656 51.0321C19.8394 51.1097 19.0644 51.1871 18.9482 51.1871C18.1345 51.1871 17.437 50.4122 17.437 49.6759V46.4598H16.817V45.7235H17.437V44.5999C17.7469 44.4836 18.0957 44.3286 18.4056 44.2511L18.4057 45.7235ZM3.02241 43.7474V48.7072C3.17739 49.8697 3.79737 50.2959 4.57234 50.2959C5.23111 50.2959 5.85105 49.9859 6.16107 49.0947V43.7474H7.16853V49.2109C6.93601 50.8384 5.57983 51.1871 4.57234 51.1871C3.75862 51.1871 2.67369 50.9547 2.20869 49.9084C2.13116 49.6759 2.05369 49.2884 2.05369 49.2109V43.7474H3.02241ZM91.6407 44.2511C91.6407 44.6386 91.4082 44.8711 91.0594 44.8711C90.6719 44.8711 90.4782 44.5223 90.4782 44.2898C90.4782 43.9024 90.6719 43.7086 91.0594 43.7086C91.4082 43.7086 91.6407 43.9024 91.6407 44.2511ZM15.7708 44.2511C15.7708 44.6386 15.4221 44.8711 15.1508 44.8711C14.7634 44.8711 14.5696 44.5223 14.5696 44.2898C14.5696 43.9024 14.8796 43.7086 15.1508 43.7086C15.4996 43.7086 15.7708 43.9024 15.7708 44.2511ZM39.795 45.4523C39.795 45.9948 39.5238 46.5373 38.7488 46.9248L38.7101 47.0023C39.8338 47.2348 40.26 48.0872 40.26 48.9397C40.26 49.0172 40.1825 49.366 40.1438 49.5597C40.0275 50.4122 38.6713 51.0709 38.0126 51.0709H35.6102V43.6699H37.4314C38.4776 43.6699 39.795 43.9799 39.795 45.4523ZM78.8538 43.6311L81.6437 51.0709H80.5199C80.365 50.5671 80.1712 50.0247 79.9775 49.5209H77.3426C77.1101 50.0247 76.9163 50.5671 76.7613 51.0709H75.6376C76.6063 48.5909 77.6138 46.1111 78.5825 43.6311H78.8538ZM85.4798 43.6699C85.441 43.7474 85.2085 44.3674 85.1698 44.3674C85.0535 44.3674 84.7823 44.2898 84.6661 44.2898C83.9686 44.2898 83.6586 44.9098 83.6586 45.4523C83.6586 45.5298 83.6973 45.6073 83.6973 45.7235H84.7823V46.4985H83.6973V51.0709H82.7674V46.4985H81.9924V45.7235H82.7674C82.7286 44.4448 83.3874 43.5149 84.5885 43.5149C84.6661 43.5149 85.1698 43.5923 85.4798 43.6699ZM63.6642 43.6699L63.4317 44.3674C63.2768 44.3286 63.0055 44.2898 62.8892 44.2898C62.463 44.2898 61.8818 44.7161 61.8818 45.1811V45.7235H63.0055V46.4985H61.8818V51.0709H60.9518V46.4985H60.1768V45.7235H60.9518C60.9518 44.4061 61.6105 43.5149 62.773 43.5149C62.8892 43.5149 63.393 43.5923 63.6642 43.6699ZM53.2408 43.5149V48.1259L55.2557 45.7235H56.3794L54.7132 47.7385L56.7669 51.0709H55.7207L54.0545 48.3972C53.8221 48.6685 53.5121 48.9784 53.2408 49.2497V51.0709H52.2721V43.5149L53.2408 43.5149ZM31.0765 43.5149V51.0709H30.1465C30.1465 50.9547 30.1465 50.8384 30.1078 50.7221C29.6428 51.0709 29.1779 51.1484 28.7129 51.1484C27.0079 51.1484 26.4267 49.7147 26.4267 48.5135C26.4267 47.3123 27.2404 45.6073 28.9066 45.6073C29.1779 45.6073 29.8366 45.7236 30.1465 45.9561V43.5149L31.0765 43.5149ZM35.9201 25.2255C38.2063 25.7292 39.2137 27.0079 39.2137 28.7903C39.2137 28.8678 39.175 29.6041 39.0588 29.9915C38.9426 30.379 38.7294 30.7213 38.3613 31.1927C37.2166 32.6587 35.0289 33.8276 33.6727 33.8276H29.7978C30.4178 30.999 30.9603 28.0929 31.5802 25.303C31.5802 25.2255 31.619 25.1868 31.6965 25.148L34.6414 25.0705C34.7189 25.0705 35.4939 25.148 35.9201 25.2255ZM61.6105 28.4803H54.597L59.7118 20.6531L61.6105 28.4803ZM39.8725 18.2895C39.8725 18.367 39.7175 19.1032 39.6787 19.4907C39.6013 20.3044 38.865 21.5056 37.7801 22.1644C37.3926 22.3969 35.8039 23.3268 35.5714 23.3268H32.1227C32.239 22.7068 32.3552 22.0481 32.4715 21.4281C32.549 21.0406 32.6652 20.6144 32.7039 20.2269C32.7815 19.8394 32.8977 19.4132 32.9365 19.0257C33.014 18.6382 33.1302 18.212 33.1689 17.8245C33.2465 17.437 33.2787 17.2239 33.3627 16.6233C33.4467 15.9322 33.395 15.9064 33.7889 15.9258L36.6951 15.8483C37.935 15.8483 39.8725 16.507 39.8725 18.2895ZM62.8892 12.7871L68.7016 36.6951H63.4705L62.5405 32.0065H52.4271L49.3272 36.6951H44.9873L61.1842 12.7871H62.8892ZM39.7562 12.7871C43.2436 13.1747 44.8711 14.8021 44.8711 17.5145C44.8711 20.4207 42.8561 22.5906 39.33 23.7531C39.3688 23.7918 39.4462 23.7918 39.485 23.7918C42.0812 24.1793 43.9411 25.6904 43.9411 28.0541C43.9411 31.8128 41.6162 35.3001 36.5788 36.4238C36.3463 36.4626 34.7964 36.7726 34.2539 36.7726H24.3729L29.3715 12.7871L39.7562 12.7871ZM8.25346 12.7871C7.86597 14.8408 7.43974 16.7783 7.05223 18.7157C6.74227 20.1494 6.43225 21.6606 6.16104 23.1331C5.77355 25.303 5.15354 27.3954 5.15354 29.5653C5.15354 31.929 5.92855 34.0602 8.98968 34.0602C11.9346 34.0602 14.8408 32.1227 15.7707 28.1704C16.972 23.0556 17.9794 17.902 19.0644 12.7871H23.4817V12.9034C22.2417 18.522 21.0793 24.1405 19.8006 29.7203C19.1225 31.4834 18.8222 31.7643 18.2894 32.4715C15.9644 35.6876 12.8646 36.7338 10.1909 37.0439C9.88096 37.0826 9.33843 37.1601 9.22219 37.1601H6.85854C6.39355 37.1213 5.88982 37.0439 5.46359 36.9663C5.03734 36.8888 4.57234 36.7726 4.14611 36.6563C1.16247 35.9201 0 33.0527 0 30.9215V29.9915C0.0387372 29.7203 0.0387372 29.4103 0.0775035 29.1003C1.2012 23.6756 2.32493 18.212 3.44864 12.7872L8.25346 12.7871ZM88.5794 36.5401C87.9594 36.6176 86.7582 36.7726 86.642 36.7726H76.9935L83.5033 6.19983C86.9132 12.8646 90.3231 19.6069 93.6943 26.3491C94.2755 27.8216 94.818 29.4102 94.818 30.9215C94.818 34.2926 92.4543 35.9201 88.5794 36.5401ZM102.451 30.5728C100.475 26.7366 98.4991 22.8618 96.5617 19.0257C95.4767 16.8945 94.3917 14.6858 93.3068 12.5934C92.958 11.8572 92.5705 11.1985 92.2605 10.501C91.9118 9.72601 91.1368 7.36234 91.1368 6.23864V5.42489C91.1756 5.0374 91.2143 4.5724 91.3306 4.22368C92.493 0.542564 96.7941 0.193809 99.3515 3.73832e-05L109 0L102.451 30.5728Z" fill="url(#paint0_linear)"/>
<defs>
<linearGradient id="paint0_linear" x1="54.5" y1="0" x2="54.5" y2="51.1871" gradientUnits="userSpaceOnUse">
<stop stop-color="#ED1500"/>
<stop offset="1" stop-color="#D70900"/>
</linearGradient>
</defs>
</svg>
